PathFileType	4	(X/Y/Z)	D:\TRACE\v60_Jaco2_6-2-23\JustBodyDRS_Motion2_8-platform.trc
DataRate	CameraRate	NumFrames	NumMarkers	Units	OrigDataRate	OrigDataStartFrame	OrigNumFrames
100.00	100.00	      69	5	mm	100.00	1	      6914
Frame#	Time	Left_Front			Right_Front			Left_Aft			Right_Aft			Post			
		X1	Y1	Z1	X2	Y2	Z2	X3	Y3	Z3	X4	Y4	Z4	X5	Y5	Z5	

1	0.000	-800.60303	8.67422	-638.92529	769.62720	10.02493	-644.04871	-708.77924	8.01924	496.08676	733.29559	7.07772	505.98886	-14.31216	1307.90088	-962.01544	
2	0.010	-800.59869	8.71937	-638.93359	769.67389	10.02454	-644.03693	-708.75159	8.01311	496.09064	733.30511	7.05504	505.97925	-14.35002	1307.90698	-962.00201	
3	0.020	-800.60828	8.68069	-638.93134	769.63123	10.02497	-644.03033	-708.78290	7.99007	496.04630	733.32947	7.08872	505.98505	-14.26905	1307.89453	-962.03253	
4	0.030	-800.56775	8.67330	-638.95923	769.61438	10.00499	-644.06354	-708.81390	8.05023	496.02731	733.26135	7.09395	505.97159	-14.31516	1307.94604	-962.01447	
5	0.040	-800.60492	8.69740	-638.96960	769.62927	10.01058	-644.07629	-708.79529	7.99766	496.06143	733.23682	7.10121	505.97733	-14.29433	1307.95996	-962.01154	
6	0.050	-800.61090	8.73239	-638.94781	769.62054	10.03906	-644.09680	-708.80450	8.03410	496.03796	733.26532	7.09181	505.96722	-14.32772	1307.92603	-962.03448	
7	0.060	-800.61975	8.71531	-638.91895	769.64209	10.02401	-644.04242	-708.74438	7.97553	496.08395	733.27124	7.08355	506.00241	-14.26255	1307.91882	-962.01208	
8	0.070	-800.62720	8.75566	-638.94525	769.48389	9.99557	-644.15198	-708.77252	7.99845	496.06674	733.31531	7.09881	505.99603	-14.31040	1307.92505	-962.03479	
9	0.080	-800.60052	8.73255	-638.95966	769.65320	10.02384	-644.06219	-708.77130	7.99311	496.05743	733.32422	7.07475	505.99225	-14.23939	1307.91187	-962.03851	
10	0.090	-800.59540	8.71660	-638.95465	769.64978	10.01543	-644.05615	-708.77679	8.04771	496.05380	733.32776	7.04963	505.97739	-14.28592	1307.91699	-962.04041	
11	0.100	-800.58618	8.73949	-638.95490	769.65308	10.02041	-644.03497	-708.77905	7.99638	496.07950	733.31305	7.09612	505.98288	-14.32981	1307.94714	-962.05060	
12	0.110	-800.60162	8.76808	-638.94641	769.66101	10.01808	-644.07104	-708.79047	7.99613	496.07083	733.24573	7.06605	505.99060	-14.26520	1307.95337	-962.00812	
13	0.120	-800.63214	8.76772	-638.91388	769.50891	10.05674	-644.12000	-708.77777	8.02385	496.06207	733.30957	7.12113	505.97949	-14.23407	1307.92395	-962.02399	
14	0.130	-800.60858	8.72554	-638.96149	769.63379	10.05210	-644.07770	-708.73950	8.00873	496.12466	733.28186	7.10748	505.98581	-14.29249	1307.94507	-962.03064	
15	0.140	-800.60260	8.67945	-638.92761	769.64471	10.01575	-644.06610	-708.78058	7.97440	496.11731	733.32587	7.08046	505.97040	-14.33052	1307.96033	-962.04828	
16	0.150	-800.58862	8.73148	-638.93127	769.60370	10.00051	-644.05054	-708.76862	7.96757	496.10779	733.31696	7.09010	505.98279	-14.25187	1307.92395	-961.99445	
17	0.160	-800.63300	8.76501	-638.88733	769.63910	10.01330	-644.04919	-708.74261	7.97437	496.10095	733.26532	7.09303	505.97775	-14.25021	1307.94836	-962.03082	
18	0.170	-800.61304	8.73045	-638.94708	769.47754	10.03620	-644.11804	-708.75995	7.98760	496.09311	733.27216	7.07230	505.98053	-14.30384	1307.93408	-962.01685	
19	0.180	-800.64001	8.72239	-638.92017	769.65613	10.03681	-644.08093	-708.76654	7.98943	496.09924	733.25262	7.07073	506.01169	-14.27061	1307.93982	-962.03839	
20	0.190	-800.68945	8.80276	-638.83911	769.66510	9.99923	-644.06885	-708.77863	8.01307	496.05908	733.30273	7.10833	505.96262	-14.25179	1307.92932	-962.01300	
21	0.200	-800.63312	8.78448	-638.87598	769.66449	10.02684	-644.03632	-708.75659	8.02793	496.07202	733.28418	7.06644	505.98010	-14.27852	1307.89954	-962.02765	
22	0.210	-800.59509	8.70960	-638.95569	769.65515	10.01339	-644.07977	-708.77350	8.00322	496.08835	733.26965	7.06724	505.95636	-14.25796	1307.91235	-962.02576	
23	0.220	-800.60388	8.72423	-638.90814	769.49371	10.01505	-644.14398	-708.72247	7.96049	496.09021	733.34991	7.07532	505.98950	-14.32244	1307.92554	-962.03833	
24	0.230	-800.61993	8.71336	-638.93774	769.62921	10.01543	-644.07831	-708.73291	7.99028	496.07779	733.32349	7.09155	505.97614	-14.32780	1307.91174	-962.00073	
25	0.240	-800.61163	8.74726	-638.90466	769.52185	10.02672	-644.14203	-708.77899	8.01655	496.06345	733.34753	7.06663	505.97415	-14.26941	1307.93457	-962.04004	
26	0.250	-800.61475	8.72860	-638.91925	769.59302	9.99837	-644.09961	-708.79834	7.99945	496.06165	733.29669	7.07734	505.96448	-14.27707	1307.94543	-962.03149	
27	0.260	-800.56866	8.71693	-638.95978	769.62079	10.01895	-644.09448	-708.72174	7.99034	496.12183	733.33960	7.08301	505.97736	-14.31176	1307.94434	-962.03998	
28	0.270	-800.56622	8.73528	-638.98096	769.48071	10.01383	-644.15210	-708.77417	7.99921	496.07153	733.25085	7.05571	505.98914	-14.30244	1307.91663	-962.02808	
29	0.280	-800.57745	8.70968	-638.94525	769.65594	10.05716	-644.04944	-708.78198	7.98867	496.06375	733.25562	7.07420	506.00958	-14.25284	1307.91711	-962.03589	
30	0.290	-800.61053	8.74621	-638.93524	769.48370	10.03399	-644.13055	-708.77753	7.98438	496.07440	733.26990	7.04305	505.98071	-14.22005	1307.91125	-962.02008	
31	0.300	-800.59808	8.74303	-638.92578	769.65613	10.02959	-644.07886	-708.76880	7.98738	496.09253	733.30585	7.07270	505.96875	-14.32730	1307.94092	-962.04327	
32	0.310	-800.57959	8.70191	-638.96344	769.66211	10.04136	-644.01227	-708.77307	8.00849	496.06589	733.31128	7.09953	506.00235	-14.31118	1307.92566	-962.02179	
33	0.320	-800.63904	8.71823	-638.93250	769.65802	10.02083	-644.06012	-708.76904	7.97801	496.07587	733.28857	7.07206	505.97830	-14.32613	1307.93481	-962.01031	
34	0.330	-800.58710	8.68631	-638.92480	769.61438	10.01425	-644.05151	-708.76801	8.00106	496.06427	733.24799	7.10106	506.00653	-14.31923	1307.94519	-962.02130	
35	0.340	-800.57098	8.71372	-638.91718	769.66840	10.01606	-644.03918	-708.79968	8.03786	496.00937	733.29218	7.07129	505.96240	-14.30880	1307.92529	-962.02698	
36	0.350	-800.62781	8.76520	-638.93256	769.67529	10.03297	-644.01434	-708.79388	8.02171	496.04031	733.23218	7.04441	505.97302	-14.32233	1307.92664	-962.03381	
37	0.360	-800.59399	8.67615	-638.99182	769.48486	10.04576	-644.09784	-708.80640	8.02263	496.11893	733.30823	7.07830	505.96982	-14.29156	1307.90295	-962.04767	
38	0.370	-800.61615	8.74718	-638.90857	769.68768	10.03414	-644.03412	-708.74225	7.95383	496.10931	733.27472	7.05982	505.97226	-14.28478	1307.89429	-961.99939	
39	0.380	-800.62439	8.70376	-638.90204	769.46674	10.03066	-644.13538	-708.77106	7.97548	496.07693	733.24292	7.08301	506.02087	-14.27655	1307.90088	-962.04657	
40	0.390	-800.59229	8.69924	-638.91205	769.60242	9.99374	-644.10614	-708.75775	7.93856	496.10202	733.22675	7.03947	505.97891	-14.23585	1307.88867	-962.03522	
41	0.400	-800.58447	8.73069	-638.96411	769.53027	10.05222	-644.12445	-708.76831	8.03499	496.08234	733.27600	7.08643	505.98312	-14.29457	1307.93018	-962.02472	
42	0.410	-800.59833	8.70719	-638.91986	769.49231	10.05111	-644.07727	-708.75787	8.00111	496.08289	733.26996	7.09478	505.97180	-14.30627	1307.94849	-962.01941	
43	0.420	-800.61566	8.71216	-638.92798	769.62262	10.02198	-644.07861	-708.78558	8.03059	496.06354	733.22742	7.06028	505.98929	-14.28890	1307.91992	-962.01086	
44	0.430	-800.60138	8.70925	-638.94537	769.58331	9.99880	-644.08496	-708.76648	7.98166	496.13428	733.22552	7.05579	505.99417	-14.26819	1307.92090	-962.01471	
45	0.440	-800.61670	8.76160	-638.96393	769.62872	10.03091	-644.04309	-708.73553	7.98310	496.11960	733.23889	7.05375	505.96780	-14.34876	1307.94580	-962.03632	
46	0.450	-800.60992	8.75509	-638.94128	769.64899	10.02346	-644.04352	-708.75549	7.99509	496.11621	733.29370	7.10769	505.98886	-14.29792	1307.95837	-962.02814	
47	0.460	-800.58405	8.77581	-638.96552	769.64514	10.03014	-644.02905	-708.75836	7.96445	496.12421	733.28149	7.10043	505.99820	-14.29029	1307.97510	-962.04218	
48	0.470	-800.63104	8.73062	-638.98163	769.67194	10.01831	-644.03741	-708.79675	8.03093	496.05872	733.29749	7.09743	505.96609	-14.26611	1307.96643	-962.05444	
49	0.480	-800.62921	8.76233	-638.94421	769.58392	9.99696	-644.10504	-708.78021	8.00426	496.07413	733.24292	7.07619	505.98386	-14.27915	1307.94873	-962.02045	
50	0.490	-800.63013	8.69849	-638.92865	769.59009	10.02156	-644.07635	-708.77441	7.99480	496.09763	733.24658	7.07897	505.98935	-14.27802	1307.94666	-962.04852	
51	0.500	-800.58752	8.71276	-638.98572	769.60687	10.01040	-644.09821	-708.76770	7.99603	496.04922	733.24298	7.07688	505.99216	-14.29326	1307.95447	-962.01141	
52	0.510	-800.60718	8.72427	-638.97388	769.65643	9.99864	-644.09174	-708.76453	7.98439	496.08633	733.26074	7.06855	505.99020	-14.29434	1307.94543	-962.02258	
53	0.520	-800.58655	8.72677	-638.96484	769.45898	10.02991	-644.12653	-708.79980	8.01248	496.07315	733.31555	7.07294	505.96964	-14.23814	1307.91968	-962.05859	
54	0.530	-800.59119	8.62079	-638.96320	769.61749	9.99858	-644.06555	-708.74457	7.98002	496.10468	733.25714	7.07629	505.98578	-14.31000	1307.92847	-962.03210	
55	0.540	-800.57825	8.65790	-638.99243	769.44147	10.07008	-644.14838	-708.78345	7.97417	496.06415	733.28107	7.05444	505.98892	-14.26615	1307.90796	-962.01324	
56	0.550	-800.59894	8.73452	-638.96759	769.64148	9.99774	-644.09589	-708.78119	7.99958	496.06946	733.27899	7.04652	505.99084	-14.26670	1307.91663	-962.01184	
57	0.560	-800.56641	8.75784	-638.98413	769.64111	10.01632	-644.06610	-708.74719	7.98227	496.09409	733.34241	7.08282	505.96735	-14.30457	1307.96729	-962.03680	
58	0.570	-800.61597	8.75210	-638.91449	769.52332	10.04118	-644.12964	-708.78534	7.98945	496.08337	733.26740	7.08190	505.99759	-14.26636	1307.94568	-962.00739	
59	0.580	-800.60303	8.67075	-638.97552	769.63904	10.00516	-644.05896	-708.79010	8.01328	496.06345	733.30341	7.05447	505.96930	-14.21659	1307.90991	-962.03278	
60	0.590	-800.59259	8.61009	-638.94519	769.61456	9.99379	-644.07538	-708.78961	7.97138	496.06680	733.19531	7.03635	505.97971	-14.27111	1307.90930	-962.01019	
61	0.600	-800.58527	8.66538	-638.96533	769.65015	10.00543	-644.03613	-708.81122	8.00045	496.05768	733.26843	7.07289	505.95654	-14.30093	1307.90015	-962.04584	
62	0.610	-800.55267	8.70514	-638.97107	769.61053	10.00423	-644.10175	-708.76904	8.00254	496.03055	733.28448	7.05267	505.96387	-14.29442	1307.94348	-962.03625	
63	0.620	-800.56421	8.72823	-638.99463	769.64020	10.04077	-644.04529	-708.77271	8.00963	496.04022	733.38336	7.14039	505.95352	-14.32993	1307.98450	-962.02655	
64	0.630	-800.54681	8.66681	-639.02362	769.59991	10.03283	-644.08905	-708.78650	7.99498	496.06921	733.22302	7.05849	506.00641	-14.34368	1307.95190	-962.06342	
65	0.640	-800.58551	8.68773	-638.97760	769.62653	10.02225	-644.07428	-708.74445	7.92332	496.10138	733.25635	7.06710	505.97372	-14.31124	1307.90356	-962.07343	
66	0.650	-800.62042	8.70224	-638.94086	769.64282	10.03010	-644.05566	-708.79089	7.97515	496.07797	733.31592	7.09202	505.97665	-14.33713	1307.90918	-962.04388	
67	0.660	-800.55206	8.64078	-638.99231	769.61285	10.02635	-644.08130	-708.76343	7.97451	496.05948	733.30487	7.09852	505.98669	-14.31609	1307.94751	-962.03375	
68	0.670	-800.51630	8.68409	-639.02826	769.60760	10.01918	-644.06274	-708.75464	7.99690	496.08127	733.30127	7.03757	505.96002	-14.30918	1307.95679	-962.00720	
69	0.680	-800.55048	8.68660	-638.99805	769.64978	10.01940	-644.04620	-708.77136	7.99430	496.03836	733.30042	7.07691	505.95999	-14.31957	1307.94836	-962.03674	
